<svg width="526" height="125" viewBox="0 0 526 125" fill="none" xmlns="http://www.w3.org/2000/svg">
<path d="M56.4271 82.849L51.8281 90.8126C66.0677 99.0313 84.8021 93.2501 93.026 79.0105C97.7656 70.797 98.151 61.2657 94.8958 53.0886C95.8281 59.4845 94.6927 66.224 91.2135 72.2501C83.8333 85.0313 69.8073 87.8542 56.4271 82.849Z" fill="#001401"/>
<path d="M89.2708 87.5885L93.8646 95.5469C108.109 87.3281 112.469 68.2135 104.245 53.974C99.5052 45.7604 91.4427 40.6615 82.7344 39.3906C88.7344 41.7813 94.0052 46.1354 97.4844 52.1615C104.865 64.9427 100.292 78.5 89.2708 87.5885Z" fill="#55833D"/>
<mask id="mask0_44_2707" style="mask-type:luminance" maskUnits="userSpaceOnUse" x="63" y="30" width="56" height="33">
<path d="M63.5781 30.7241H118.906V62.7241H63.5781V30.7241Z" fill="white"/>
</mask>
<g mask="url(#mask0_44_2707)">
<path d="M109.797 61.5158H118.99C118.99 45.0679 104.62 31.7397 88.1718 31.7397C78.6875 31.7397 70.2448 36.172 64.7916 43.0783C69.8593 39.0731 76.2604 36.6877 83.2239 36.6877C97.9843 36.6877 107.443 47.422 109.797 61.5158Z" fill="#001401"/>
</g>
<path d="M97.4792 30.6981L102.073 22.7398C87.8333 14.5158 69.099 20.2971 60.8802 34.5367C56.1354 42.7502 55.7552 52.2814 59.0104 60.4585C58.0781 54.0679 59.2083 47.3283 62.6927 41.2971C70.0677 28.5158 84.099 25.6981 97.4792 30.6981Z" fill="#55833D"/>
<path d="M64.6354 25.9583L60.0365 18C45.7969 26.224 41.4375 45.3333 49.6563 59.5729C54.4011 67.7865 62.4636 72.8854 71.1719 74.1562C65.1667 71.7656 59.8959 67.4167 56.4167 61.3854C49.0365 48.6042 53.6094 35.0469 64.6354 25.9583Z" fill="#001401"/>
<mask id="mask1_44_2707" style="mask-type:luminance" maskUnits="userSpaceOnUse" x="35" y="50" width="56" height="33">
<path d="M35 50.7241H90.2448V82.7241H35V50.7241Z" fill="white"/>
</mask>
<g mask="url(#mask1_44_2707)">
<path d="M44.1093 52.0366H34.9166C34.9166 68.4793 49.2864 81.8127 65.7291 81.8127C75.2135 81.8127 83.6614 77.3804 89.1145 70.4689C84.0416 74.4741 77.6406 76.8647 70.677 76.8647C55.9218 76.8647 46.4635 66.1252 44.1093 52.0366Z" fill="#55833D"/>
</g>
<path d="M176.238 84.816C172.248 84.816 168.561 84.1337 165.175 82.7743C161.785 81.3993 158.831 79.4827 156.321 77.0243C153.805 74.5556 151.852 71.665 150.467 68.3577C149.076 65.04 148.384 61.441 148.384 57.566C148.384 53.6806 149.076 50.0816 150.467 46.7743C151.852 43.4566 153.805 40.566 156.321 38.1077C158.831 35.6493 161.785 33.7327 165.175 32.3577C168.561 30.9827 172.248 30.2952 176.238 30.2952C180.206 30.2952 183.889 30.9827 187.279 32.3577C190.665 33.7327 193.602 35.6493 196.092 38.1077C198.576 40.566 200.514 43.4566 201.904 46.7743C203.305 50.0816 204.009 53.6806 204.009 57.566C204.009 61.441 203.305 65.04 201.904 68.3577C200.514 71.665 198.576 74.5556 196.092 77.0243C193.602 79.4827 190.665 81.3993 187.279 82.7743C183.889 84.1337 180.206 84.816 176.238 84.816ZM176.238 74.1285C179.363 74.1285 182.154 73.4098 184.613 71.9618C187.081 70.5191 189.029 68.5556 190.446 66.066C191.873 63.5816 192.592 60.7483 192.592 57.566C192.592 54.4306 191.873 51.6025 190.446 49.0868C189.029 46.5764 187.081 44.5972 184.613 43.1493C182.154 41.7066 179.363 40.9827 176.238 40.9827C173.139 40.9827 170.347 41.7066 167.863 43.1493C165.373 44.5972 163.41 46.5764 161.967 49.0868C160.519 51.6025 159.8 54.4306 159.8 57.566C159.8 60.691 160.519 63.5139 161.967 66.0243C163.41 68.54 165.373 70.5191 167.863 71.9618C170.347 73.4098 173.139 74.1285 176.238 74.1285Z" fill="#001401"/>
<path d="M237.451 31.4202C240.978 31.4202 244.123 32.2066 246.889 33.7743C249.649 35.3472 251.853 37.4931 253.493 40.2118C255.144 42.9202 255.972 45.9931 255.972 49.4202C255.972 52.8525 255.16 55.9306 253.535 58.6493C251.92 61.3577 249.722 63.4827 246.931 65.0243C244.139 66.566 240.978 67.3368 237.451 67.3368H228.701V83.691H217.368V31.4202H237.451ZM236.993 56.8785C239.243 56.8785 241.045 56.1702 242.41 54.7535C243.785 53.3368 244.472 51.5608 244.472 49.4202C244.472 47.2275 243.785 45.4202 242.41 44.0035C241.045 42.5868 239.243 41.8785 236.993 41.8785H228.701V56.8785H236.993Z" fill="#001401"/>
<path d="M302.993 83.691L299.347 73.7535H278.514L274.93 83.691H262.972L283.43 31.4202H294.118L315.243 83.691H302.993ZM288.889 45.2327L282.097 63.8993H295.764L288.889 45.2327Z" fill="#001401"/>
<path d="M337.701 73.1702H357.722V83.691H326.368V31.4202H337.701V73.1702Z" fill="#55833D"/>
<path d="M369.818 83.691V31.4202H381.152V83.691H369.818Z" fill="#55833D"/>
<path d="M430.737 31.4202H441.779V83.691H432.383L408.716 51.066V83.691H397.591V31.4202H407.82L430.737 63.316V31.4202Z" fill="#55833D"/>
<path d="M469.546 73.1702H490.379V83.691H458.213V31.4202H489.567V41.8785H469.546V52.191H487.629V62.4202H469.546V73.1702Z" fill="#55833D"/>
<path d="M245.112 100.248H241.549V102.311H244.758V104.123H241.549V107.707H239.529V98.3733H245.112V100.248Z" fill="#001401"/>
<path d="M253.805 107.707L251.993 104.519H250.68V107.707H248.659V98.3733H252.43C253.055 98.3733 253.607 98.5087 254.097 98.7691C254.597 99.0347 254.982 99.4045 255.263 99.8733C255.539 100.332 255.68 100.863 255.68 101.457C255.68 102.071 255.524 102.613 255.222 103.082C254.914 103.556 254.503 103.915 253.993 104.165L256.055 107.707H253.805ZM250.68 100.248V102.644H252.305C252.722 102.644 253.045 102.535 253.284 102.311C253.534 102.092 253.659 101.806 253.659 101.457C253.659 101.097 253.534 100.806 253.284 100.582C253.045 100.363 252.722 100.248 252.305 100.248H250.68Z" fill="#001401"/>
<path d="M265.677 107.707L265.011 105.936H261.302L260.656 107.707H258.531L262.177 98.3733H264.094L267.865 107.707H265.677ZM263.156 100.832L261.948 104.165H264.386L263.156 100.832Z" fill="#001401"/>
<path d="M276.955 98.3733H278.934V107.707H277.247L273.039 101.873V107.707H271.039V98.3733H272.872L276.955 104.061V98.3733Z" fill="#001401"/>
<path d="M287.353 107.915C286.655 107.915 286.02 107.79 285.436 107.54C284.853 107.29 284.337 106.951 283.895 106.519C283.462 106.076 283.129 105.561 282.895 104.978C282.655 104.384 282.54 103.743 282.54 103.061C282.54 102.368 282.655 101.722 282.895 101.123C283.129 100.53 283.462 100.014 283.895 99.5817C284.337 99.139 284.853 98.79 285.436 98.54C286.02 98.29 286.655 98.165 287.353 98.165C288.103 98.165 288.79 98.3265 289.415 98.6442C290.051 98.9515 290.582 99.389 290.999 99.9567C291.426 100.514 291.717 101.16 291.874 101.894H289.832C289.65 101.342 289.337 100.905 288.895 100.582C288.447 100.264 287.936 100.103 287.353 100.103C286.822 100.103 286.353 100.238 285.936 100.498C285.52 100.748 285.186 101.097 284.936 101.54C284.697 101.988 284.582 102.493 284.582 103.061C284.582 103.618 284.697 104.118 284.936 104.561C285.186 104.993 285.52 105.342 285.936 105.603C286.353 105.853 286.822 105.978 287.353 105.978C287.962 105.978 288.488 105.811 288.936 105.478C289.379 105.134 289.686 104.66 289.853 104.061H291.895C291.754 104.826 291.467 105.498 291.04 106.082C290.624 106.665 290.092 107.118 289.457 107.436C288.816 107.754 288.113 107.915 287.353 107.915Z" fill="#001401"/>
<path d="M300.879 98.3733H302.879V107.707H300.879V103.852H297.358V107.707H295.337V98.3733H297.358V101.977H300.879V98.3733Z" fill="#001401"/>
<path d="M307.027 107.707V98.3733H309.048V107.707H307.027Z" fill="#001401"/>
<path d="M316.289 107.894C315.565 107.894 314.935 107.769 314.393 107.519C313.852 107.259 313.425 106.889 313.123 106.415C312.815 105.931 312.664 105.353 312.664 104.686H314.706C314.706 105.134 314.862 105.467 315.185 105.686C315.503 105.91 315.862 106.019 316.268 106.019C316.529 106.019 316.774 105.978 316.998 105.894C317.216 105.811 317.399 105.686 317.539 105.519C317.69 105.353 317.768 105.155 317.768 104.915C317.768 104.681 317.685 104.493 317.518 104.353C317.352 104.217 317.123 104.103 316.831 104.019C316.55 103.926 316.248 103.842 315.914 103.769C315.565 103.686 315.206 103.592 314.831 103.478C314.466 103.353 314.133 103.202 313.831 103.019C313.524 102.827 313.274 102.571 313.081 102.248C312.899 101.915 312.81 101.498 312.81 100.998C312.81 100.097 313.107 99.4099 313.706 98.936C314.315 98.4516 315.143 98.2068 316.185 98.2068C317.253 98.2068 318.081 98.4776 318.664 99.0193C319.248 99.5505 319.539 100.28 319.539 101.207H317.539C317.539 100.806 317.399 100.509 317.123 100.311C316.841 100.118 316.518 100.019 316.143 100.019C315.81 100.019 315.503 100.097 315.227 100.248C314.945 100.389 314.81 100.613 314.81 100.915C314.81 101.139 314.893 101.311 315.06 101.436C315.227 101.561 315.44 101.665 315.706 101.748C315.982 101.832 316.289 101.915 316.623 101.998C316.966 102.082 317.331 102.186 317.706 102.311C318.081 102.436 318.425 102.603 318.748 102.811C319.065 103.009 319.32 103.28 319.518 103.623C319.727 103.957 319.831 104.384 319.831 104.894C319.831 105.577 319.664 106.139 319.331 106.582C319.008 107.03 318.581 107.363 318.039 107.582C317.508 107.79 316.925 107.894 316.289 107.894Z" fill="#001401"/>
<path d="M325.456 105.832H329.185V107.707H323.435V98.3733H329.039V100.248H325.456V102.082H328.685V103.915H325.456V105.832Z" fill="#001401"/>
<path d="M341.613 98.3733C342.29 98.3733 342.915 98.4931 343.488 98.7275C344.071 98.9514 344.571 99.2691 344.988 99.6858C345.415 100.102 345.748 100.597 345.988 101.165C346.222 101.738 346.342 102.352 346.342 103.019C346.342 103.701 346.222 104.326 345.988 104.894C345.748 105.467 345.415 105.967 344.988 106.394C344.571 106.811 344.071 107.139 343.488 107.373C342.915 107.597 342.29 107.707 341.613 107.707H338.071V98.3733H341.613ZM341.55 105.832C342.092 105.832 342.561 105.717 342.967 105.477C343.383 105.227 343.701 104.894 343.925 104.477C344.159 104.05 344.279 103.561 344.279 103.019C344.279 102.477 344.159 101.998 343.925 101.582C343.701 101.165 343.383 100.842 342.967 100.602C342.561 100.368 342.092 100.248 341.55 100.248H340.092V105.832H341.55Z" fill="#001401"/>
<path d="M351.968 105.832H355.697V107.707H349.947V98.3733H355.551V100.248H351.968V102.082H355.197V103.915H351.968V105.832Z" fill="#001401"/>
<path d="M370.208 102.79C370.609 102.998 370.921 103.3 371.145 103.686C371.38 104.076 371.499 104.519 371.499 105.019C371.499 105.519 371.364 105.972 371.104 106.373C370.838 106.78 370.479 107.102 370.02 107.352C369.572 107.592 369.088 107.707 368.562 107.707H364.583V98.3733H368.458C368.984 98.3733 369.458 98.4775 369.874 98.6858C370.302 98.8941 370.635 99.1858 370.874 99.5608C371.124 99.9254 371.249 100.326 371.249 100.769C371.249 101.175 371.15 101.556 370.958 101.915C370.775 102.264 370.525 102.556 370.208 102.79ZM369.291 101.102C369.291 100.8 369.192 100.556 368.999 100.373C368.817 100.196 368.567 100.102 368.249 100.102H366.583V102.082H368.249C368.567 102.082 368.817 101.993 368.999 101.811C369.192 101.618 369.291 101.384 369.291 101.102ZM368.354 105.852C368.697 105.852 368.968 105.759 369.166 105.561C369.359 105.368 369.458 105.113 369.458 104.79C369.458 104.498 369.359 104.259 369.166 104.061C368.968 103.868 368.697 103.769 368.354 103.769H366.583V105.852H368.354Z" fill="#001401"/>
<path d="M377.16 105.832H380.744V107.707H375.139V98.3733H377.16V105.832Z" fill="#001401"/>
<path d="M390.305 107.707L389.638 105.936H385.93L385.284 107.707H383.159L386.805 98.3733H388.722L392.493 107.707H390.305ZM387.784 100.832L386.576 104.165H389.013L387.784 100.832Z" fill="#001401"/>
<path d="M401.583 98.3733H403.562V107.707H401.875L397.666 101.873V107.707H395.666V98.3733H397.5L401.583 104.061V98.3733Z" fill="#001401"/>
<path d="M411.981 107.915C411.283 107.915 410.647 107.79 410.064 107.54C409.481 107.29 408.965 106.951 408.522 106.519C408.09 106.076 407.757 105.561 407.522 104.978C407.283 104.384 407.168 103.743 407.168 103.061C407.168 102.368 407.283 101.722 407.522 101.123C407.757 100.53 408.09 100.014 408.522 99.5817C408.965 99.139 409.481 98.79 410.064 98.54C410.647 98.29 411.283 98.165 411.981 98.165C412.731 98.165 413.418 98.3265 414.043 98.6442C414.679 98.9515 415.21 99.389 415.626 99.9567C416.054 100.514 416.345 101.16 416.501 101.894H414.46C414.277 101.342 413.965 100.905 413.522 100.582C413.074 100.264 412.564 100.103 411.981 100.103C411.449 100.103 410.981 100.238 410.564 100.498C410.147 100.748 409.814 101.097 409.564 101.54C409.324 101.988 409.21 102.493 409.21 103.061C409.21 103.618 409.324 104.118 409.564 104.561C409.814 104.993 410.147 105.342 410.564 105.603C410.981 105.853 411.449 105.978 411.981 105.978C412.59 105.978 413.116 105.811 413.564 105.478C414.007 105.134 414.314 104.66 414.481 104.061H416.522C416.382 104.826 416.095 105.498 415.668 106.082C415.251 106.665 414.72 107.118 414.085 107.436C413.444 107.754 412.741 107.915 411.981 107.915Z" fill="#001401"/>
<path d="M425.507 98.3733H427.507V107.707H425.507V103.852H421.986V107.707H419.965V98.3733H421.986V101.977H425.507V98.3733Z" fill="#001401"/>
<path d="M431.654 107.707V98.3733H433.675V107.707H431.654Z" fill="#001401"/>
<path d="M440.917 107.894C440.193 107.894 439.563 107.769 439.021 107.519C438.479 107.259 438.052 106.889 437.75 106.415C437.443 105.931 437.292 105.353 437.292 104.686H439.334C439.334 105.134 439.49 105.467 439.813 105.686C440.13 105.91 440.49 106.019 440.896 106.019C441.157 106.019 441.401 105.978 441.625 105.894C441.844 105.811 442.026 105.686 442.167 105.519C442.318 105.353 442.396 105.155 442.396 104.915C442.396 104.681 442.313 104.493 442.146 104.353C441.979 104.217 441.75 104.103 441.459 104.019C441.177 103.926 440.875 103.842 440.542 103.769C440.193 103.686 439.834 103.592 439.459 103.478C439.094 103.353 438.761 103.202 438.459 103.019C438.151 102.827 437.901 102.571 437.709 102.248C437.526 101.915 437.438 101.498 437.438 100.998C437.438 100.097 437.735 99.4099 438.334 98.936C438.943 98.4516 439.771 98.2068 440.813 98.2068C441.88 98.2068 442.709 98.4776 443.292 99.0193C443.875 99.5505 444.167 100.28 444.167 101.207H442.167C442.167 100.806 442.026 100.509 441.75 100.311C441.469 100.118 441.146 100.019 440.771 100.019C440.438 100.019 440.13 100.097 439.854 100.248C439.573 100.389 439.438 100.613 439.438 100.915C439.438 101.139 439.521 101.311 439.688 101.436C439.854 101.561 440.068 101.665 440.334 101.748C440.61 101.832 440.917 101.915 441.25 101.998C441.594 102.082 441.959 102.186 442.334 102.311C442.709 102.436 443.052 102.603 443.375 102.811C443.693 103.009 443.948 103.28 444.146 103.623C444.354 103.957 444.459 104.384 444.459 104.894C444.459 105.577 444.292 106.139 443.959 106.582C443.636 107.03 443.209 107.363 442.667 107.582C442.136 107.79 441.552 107.894 440.917 107.894Z" fill="#001401"/>
<path d="M451.167 107.894C450.443 107.894 449.813 107.769 449.271 107.519C448.729 107.259 448.302 106.889 448 106.415C447.693 105.931 447.542 105.353 447.542 104.686H449.584C449.584 105.134 449.74 105.467 450.063 105.686C450.381 105.91 450.74 106.019 451.146 106.019C451.407 106.019 451.651 105.978 451.875 105.894C452.094 105.811 452.276 105.686 452.417 105.519C452.568 105.353 452.646 105.155 452.646 104.915C452.646 104.681 452.563 104.493 452.396 104.353C452.229 104.217 452 104.103 451.709 104.019C451.427 103.926 451.125 103.842 450.792 103.769C450.443 103.686 450.084 103.592 449.709 103.478C449.344 103.353 449.011 103.202 448.709 103.019C448.401 102.827 448.151 102.571 447.959 102.248C447.776 101.915 447.688 101.498 447.688 100.998C447.688 100.097 447.985 99.4099 448.584 98.936C449.193 98.4516 450.021 98.2068 451.063 98.2068C452.131 98.2068 452.959 98.4776 453.542 99.0193C454.125 99.5505 454.417 100.28 454.417 101.207H452.417C452.417 100.806 452.276 100.509 452 100.311C451.719 100.118 451.396 100.019 451.021 100.019C450.688 100.019 450.381 100.097 450.104 100.248C449.823 100.389 449.688 100.613 449.688 100.915C449.688 101.139 449.771 101.311 449.938 101.436C450.104 101.561 450.318 101.665 450.584 101.748C450.86 101.832 451.167 101.915 451.5 101.998C451.844 102.082 452.209 102.186 452.584 102.311C452.959 102.436 453.302 102.603 453.625 102.811C453.943 103.009 454.198 103.28 454.396 103.623C454.604 103.957 454.709 104.384 454.709 104.894C454.709 105.577 454.542 106.139 454.209 106.582C453.886 107.03 453.459 107.363 452.917 107.582C452.386 107.79 451.802 107.894 451.167 107.894Z" fill="#001401"/>
<path d="M460.334 105.832H464.063V107.707H458.313V98.3733H463.917V100.248H460.334V102.082H463.563V103.915H460.334V105.832Z" fill="#001401"/>
<path d="M472.909 107.707L471.097 104.519H469.784V107.707H467.763V98.3733H471.534C472.159 98.3733 472.711 98.5087 473.201 98.7691C473.701 99.0347 474.086 99.4045 474.367 99.8733C474.644 100.332 474.784 100.863 474.784 101.457C474.784 102.071 474.628 102.613 474.326 103.082C474.019 103.556 473.607 103.915 473.097 104.165L475.159 107.707H472.909ZM469.784 100.248V102.644H471.409C471.826 102.644 472.149 102.535 472.388 102.311C472.638 102.092 472.763 101.806 472.763 101.457C472.763 101.097 472.638 100.806 472.388 100.582C472.149 100.363 471.826 100.248 471.409 100.248H469.784Z" fill="#001401"/>
<path d="M478.573 107.707V98.3733H480.594V107.707H478.573Z" fill="#001401"/>
<path d="M486.752 105.832H490.482V107.707H484.732V98.3733H490.336V100.248H486.752V102.082H489.982V103.915H486.752V105.832Z" fill="#001401"/>
</svg>
